<?xml version="1.0" encoding="utf-8"?>
<!-- Generator: Adobe Illustrator 21.0.2, SVG Export Plug-In . SVG Version: 6.00 Build 0)  -->
<svg version="1.1" xmlns="http://www.w3.org/2000/svg" xmlns:xlink="http://www.w3.org/1999/xlink" x="0px" y="0px"
	 viewBox="0 0 1066.4 258" style="enable-background:new 0 0 1066.4 258;" xml:space="preserve">
<style type="text/css">
	.st0{fill:#eeeeee;stroke:#000000;stroke-width:0.25;stroke-miterlimit:10;}
	.st1{fill:#eeeeee;}
</style>
<g id="Layer_3">
</g>
<g id="Layer_2">
	<path class="st0" d="M419.3,88.4"/>
	<path class="st0" d="M917.7,57.4"/>
	<path class="st0" d="M412.5,249"/>
	<path class="st1" d="M174.9,107.4h13v91h-13v-20.2v-8.2l-5.7,5.2c-17.9,16.2-41.2,25.2-65.6,25.2c-54,0-97.9-43.6-97.9-97.1
		c0-24.9,10.2-48.6,28.7-66.7C53.1,18.4,77.7,8.4,103.6,8.4c32.6,0,62.3,16.3,80.5,44h-14.5c-15.9-19.4-40.4-31-66-31
		c-46.3,0-84,36.7-84,81.9c0,22.6,8.7,43.7,24.5,59.5c15.8,15.8,37,24.5,59.5,24.5c28.7,0,55.2-14.4,70.7-38.5l0.5-0.8v-0.4V107.4z
		 M239.8,187.6c-2.1,0.9-4,1.3-5.7,1.3c-9.2,0-9.2-11.7-9.2-16.7v-143c0-18.2-8.5-20.5-16-20.5c-4.9,0-10.1,1.2-13,2v11.1
		c2.7-0.5,4.8-0.8,6.6-0.8c10.1,0,10.2,8,10.4,14.4l0,142.6v2.3c0,14.2,4.9,20.6,15.8,20.6c4.4,0,10.2-2.7,13.5-4.6L239.8,187.6z
		 M353.9,83.4h12v114h-12v-16.5v-8.3L348,179c-10.9,13.3-26.5,20.9-42.8,20.9c-32,0-59-27.3-59-59.5c0-32.5,26.5-59,59-59
		c16.4,0,32,7.4,42.8,20.4l5.9,6.2v-8.1V83.4z M352.1,140.4c0-25.4-21.7-46.9-47.5-46.9c-25.4,0-45.3,20.6-45.3,46.9
		c0,26.2,20.3,47.5,45.3,47.5C330,187.9,352.1,165.7,352.1,140.4z M428.7,131.8c-15.2-3-29.3-7.5-29.3-20.3
		c0-10.5,11.3-18.2,26.8-18.2c13.5,0,23.6,5.5,26.5,14.1h11.7c-3.1-16-17.8-26.2-38.3-26.2c-23.5,0-38.7,11.9-38.7,30.3
		c0,17.3,11.7,27,39.2,32.5c21.6,4.3,31.2,8.5,31.2,21.9c0,12.5-13,21.2-31.7,21.2c-15.2,0-28.1-7.9-31.2-18.7h-11.8
		c2.4,18.5,19.3,30.8,43,30.8c26.7,0,43.3-12.7,43.3-33.3C469.5,147.3,458.1,137.8,428.7,131.8z M604,140.5c0,32.3-27,59.5-59,59.5
		c-16.3,0-31.9-7.6-42.8-20.9l-5.3-6.4v8.3v70.5h-12v-168h12V100v8.1l5.3-6.2c10.8-13,26.4-20.4,42.8-20.4
		C577.5,81.5,604,108,604,140.5z M590.8,140.5c0-26.3-19.9-46.9-45.3-46.9c-25.7,0-47.5,21.5-47.5,46.9c0,25.3,22.2,47.5,47.5,47.5
		C570.5,188,590.8,166.7,590.8,140.5z M719.8,187.9c-2.2,0.9-4,1.3-5.7,1.3c-9.2,0-9.2-11.8-9.2-16.8v-38.1
		c0-34.6-14.2-41.6-37.1-41.6c-11.1,0-19.9,4.9-26.1,14.4l-5.8,8.9v-10.7V29.4c0-14-5-20.2-16.1-20.2c-4.8,0-10,1.2-12.9,2v11
		c2.7-0.5,4.9-0.8,6.7-0.8c10.3,0,10.3,8,10.3,16.4v141.8v4.6v3.3v10.8h12v-10.8v-3.3v-2.2v-52.8v-0.4l0.1-0.4
		c4.1-16,14.5-24.1,31.1-24.1c12.6,0,25.6,3.3,25.6,28c0,3.3,0,9,0,15.4c0.1,25.7,0.1,33.3,0,35.9c0.8,12,5.8,17.3,16.1,17.3
		c4.4,0,10.1-2.7,13.5-4.6L719.8,187.9z M843.8,130.3l1,5.4l-99.5,17.5l-3.5,0.6l1.3,3.3c8.1,21.2,29.5,33.9,51,30.1
		c13.1-2.3,24.4-10.4,31.1-22.3l16-2.8c-7.3,19.1-24.5,33.4-45,37c-31.5,5.6-62.8-16.6-68.4-48.4c-5.6-32,15.8-62.7,47.8-68.3
		C807.5,76.9,838.1,98.3,843.8,130.3z M828.3,123.4c-8.1-20.6-29.5-32.8-50.8-29c-21.6,3.8-37.2,22.2-37.8,44.6l-0.1,3.6l3.6-0.6
		l82.9-14.6l3.6-0.6L828.3,123.4z M877.9,101.4c0-18-8.5-20.3-16-20.3c-4.9,0-10.1,1.2-13,2v11.1c2.7-0.5,4.8-0.8,6.6-0.8
		c10.1,0,10.2,7.9,10.4,14.2l0,92.8h12V101.4z M909.8,81.5c-11.1,0-19.9,4.9-26.1,14.4l-5.8,8.9v12.8l0.1-0.4
		c4.1-16,14.5-24.1,31.1-24.1c9.4,0,19,1.9,23.2,13l9.7-9.7C936.1,84.5,924.8,81.5,909.8,81.5z M1058.7,130.8l1,5.4l-99.5,17.5
		l-3.5,0.6l1.3,3.3c8.1,21.2,29.5,33.9,51,30.1c13.1-2.3,24.4-10.4,31.1-22.3l16-2.8c-7.3,19.1-24.5,33.4-45,37
		c-31.5,5.6-62.8-16.6-68.4-48.4c-5.6-32,15.8-62.7,47.8-68.3C1022.4,77.3,1053.1,98.7,1058.7,130.8z M1043.3,123.8
		c-8.1-20.6-29.5-32.8-50.8-29c-21.6,3.8-37.2,22.2-37.8,44.6l-0.1,3.6l3.6-0.6l82.9-14.6l3.6-0.6L1043.3,123.8z M585.4,22
		l-0.3-11.3C474.2,13.4,364.4,31,259,63.1l3.3,10.8C366.8,42.2,475.5,24.7,585.4,22z M585.3,16.4 M615.3,16 M973.2,63.6
		C871.6,32.5,765.9,14.9,659.1,11.1l-0.4,11.3c105.9,3.7,210.6,21.2,311.2,52L973.2,63.6z M971.5,69 M1031.2,89"/>
</g>
</svg>
