<svg xmlns="http://www.w3.org/2000/svg" xmlns:xlink="http://www.w3.org/1999/xlink" viewBox="0 0 294.9 294.9"><defs><style>.cls-1{fill:#fff;}.cls-13,.cls-2,.cls-5,.cls-7,.cls-9{fill:none;}.cls-3{mask:url(#mask);}.cls-4{mask:url(#mask-2);}.cls-13,.cls-5,.cls-7,.cls-9{stroke:#000;stroke-miterlimit:10;}.cls-5{stroke-width:8px;}.cls-6{mask:url(#mask-3);}.cls-7{stroke-width:7.5px;}.cls-8{clip-path:url(#clip-path);}.cls-9{stroke-width:5px;}.cls-10{clip-path:url(#clip-path-2);}.cls-11{clip-path:url(#clip-path-3);}.cls-12{clip-path:url(#clip-path-4);}.cls-13{stroke-width:10px;}.cls-14{filter:url(#luminosity-invert-noclip-2);}.cls-15{filter:url(#luminosity-invert-noclip);}</style><mask id="mask" x="19.95" y="19.95" width="255" height="255" maskUnits="userSpaceOnUse"><g transform="translate(-2.55 -2.55)"><circle class="cls-1" cx="150" cy="150" r="127.5"/></g></mask><filter id="luminosity-invert-noclip" x="9.8" y="43.99" width="241.41" height="241.74" filterUnits="userSpaceOnUse" color-interpolation-filters="sRGB"><feColorMatrix values="-1 0 0 0 1 0 -1 0 0 1 0 0 -1 0 1 0 0 0 1 0" result="invert"/><feFlood flood-color="#fff" result="bg"/><feBlend in="invert" in2="bg"/></filter><mask id="mask-2" x="7.25" y="41.44" width="241.41" height="241.74" maskUnits="userSpaceOnUse"><g class="cls-15"><g transform="translate(-2.55 -2.55)"><rect class="cls-1" x="163.02" y="65.46" width="82.02" height="51.42" transform="translate(-4.7 170.97) rotate(-45)"/></g></g></mask><filter id="luminosity-invert-noclip-2" x="51.68" y="99.94" width="143.9" height="143.9" filterUnits="userSpaceOnUse" color-interpolation-filters="sRGB"><feColorMatrix values="-1 0 0 0 1 0 -1 0 0 1 0 0 -1 0 1 0 0 0 1 0" result="invert"/><feFlood flood-color="#fff" result="bg"/><feBlend in="invert" in2="bg"/></filter><mask id="mask-3" x="49.13" y="97.39" width="143.9" height="143.9" maskUnits="userSpaceOnUse"><g class="cls-14"><g transform="translate(-2.55 -2.55)"><rect class="cls-1" x="101.43" y="134.69" width="104.3" height="14.52" transform="translate(-55.4 150.17) rotate(-45)"/></g></g></mask><clipPath id="clip-path" transform="translate(-2.55 -2.55)"><rect class="cls-2" x="111.24" y="113.7" width="167.71" height="26" transform="translate(-32.45 175.07) rotate(-45)"/></clipPath><clipPath id="clip-path-2" transform="translate(-2.55 -2.55)"><rect class="cls-2" x="85.09" y="87.8" width="167.71" height="25.49" transform="translate(-21.61 148.91) rotate(-45)"/></clipPath><clipPath id="clip-path-3" transform="translate(-2.55 -2.55)"><rect class="cls-2" x="149.99" y="90.07" width="135.08" height="20.94" transform="translate(-7.38 183.26) rotate(-45)"/></clipPath><clipPath id="clip-path-4" transform="translate(-2.55 -2.55)"><rect class="cls-2" x="127.56" y="67.31" width="135.08" height="20.94" transform="translate(2.15 160.74) rotate(-45)"/></clipPath></defs><title>advisory icon</title><g id="Layer_6" data-name="Layer 6"><g class="cls-3"><g class="cls-4"><circle class="cls-5" cx="120.47" cy="169.96" r="109.21"/></g><g class="cls-6"><circle class="cls-5" cx="120.47" cy="169.96" r="67.33"/><circle class="cls-5" cx="120.47" cy="169.96" r="29.44"/></g><path d="M233.54,56.35l-99.16,99.16-14,14c-3.42,3.42,1.88,8.72,5.3,5.3l99.16-99.16,14-14c3.42-3.42-1.88-8.72-5.3-5.3Z" transform="translate(-2.55 -2.55)"/><line class="cls-7" x1="237.47" y1="52.63" x2="233.64" y2="56.45"/><path d="M233.54,56.68l-99.16,99.16-14,14c-3.42,3.42,1.88,8.72,5.3,5.3L224.83,76l14-14c3.42-3.42-1.88-8.72-5.3-5.3Z" transform="translate(-2.55 -2.55)"/><line class="cls-7" x1="237.47" y1="52.96" x2="233.64" y2="56.78"/><g class="cls-8"><polygon class="cls-9" points="223.89 67.23 180.59 98.09 205.87 106.01 249.17 75.15 223.89 67.23"/></g><g class="cls-10"><polygon class="cls-9" points="222.86 66.2 192 109.5 184.08 84.22 214.94 40.92 222.86 66.2"/></g><g class="cls-11"><polygon points="210.43 92.87 198.8 92.87 205.28 88.06 216.92 88.06 210.43 92.87"/><polygon points="222.89 82.9 208.69 82.9 216.61 77.03 230.81 77.03 222.89 82.9"/></g><g class="cls-12"><polygon points="197.67 79.77 197.67 91.41 202.48 84.92 202.48 73.28 197.67 79.77"/><polygon points="207.63 67.31 207.63 81.51 213.51 73.59 213.51 59.39 207.63 67.31"/></g></g></g><g id="Layer_2" data-name="Layer 2"><circle class="cls-13" cx="147.45" cy="147.45" r="142.45"/></g></svg>